<?xml version="1.0" encoding="UTF-8" standalone="no"?>
<svg
   width="48"
   height="15"
   version="1.1"
   id="svg1071"
   sodipodi:docname="spotify.svg"
   inkscape:version="1.2.1 (9c6d41e410, 2022-07-14)"
   xmlns:inkscape="http://www.inkscape.org/namespaces/inkscape"
   xmlns:sodipodi="http://sodipodi.sourceforge.net/DTD/sodipodi-0.dtd"
   xmlns="http://www.w3.org/2000/svg"
   xmlns:svg="http://www.w3.org/2000/svg">
  <sodipodi:namedview
     id="namedview1073"
     pagecolor="#ffffff"
     bordercolor="#666666"
     borderopacity="1.0"
     inkscape:showpageshadow="2"
     inkscape:pageopacity="0.0"
     inkscape:pagecheckerboard="0"
     inkscape:deskcolor="#d1d1d1"
     showgrid="false"
     inkscape:zoom="7.6822917"
     inkscape:cx="26.229153"
     inkscape:cy="19.655593"
     inkscape:window-width="1920"
     inkscape:window-height="1057"
     inkscape:window-x="-8"
     inkscape:window-y="-8"
     inkscape:window-maximized="1"
     inkscape:current-layer="svg1071" />
  <defs
     id="defs1065">
    <filter
       id="a"
       x="0"
       y="0"
       width="1"
       height="1">
      <feColorMatrix
         in="SourceGraphic"
         values="0 0 0 0 0.353480 0 0 0 0 0.401652 0 0 0 0 0.540147 0 0 0 1.000000 0"
         id="feColorMatrix1062" />
    </filter>
  </defs>
  <g
     filter="url(#a)"
     fill="none"
     fill-rule="evenodd"
     id="g1069"
     transform="matrix(0.49914973,0,0,0.51373854,-0.23880334,0.15350999)">
    <path
       d="m 14.425,0.048 c -7.943,0 -14.382,6.472 -14.382,14.455 0,7.984 6.44,14.456 14.382,14.456 7.944,0 14.382,-6.472 14.382,-14.456 C 28.807,6.52 22.369,0.05 14.425,0.05 Z m 6.595,20.849 a 0.893,0.893 0 0 1 -1.233,0.298 C 16.411,19.122 12.16,18.653 7.154,19.802 A 0.897,0.897 0 0 1 6.081,19.124 0.9,0.9 0 0 1 6.755,18.045 c 5.478,-1.258 10.177,-0.716 13.968,1.612 0.423,0.261 0.557,0.815 0.297,1.24 z m 1.76,-3.936 a 1.118,1.118 0 0 1 -1.542,0.371 C 17.373,14.944 11.48,14.252 6.908,15.647 a 1.122,1.122 0 0 1 -1.4,-0.75 1.13,1.13 0 0 1 0.748,-1.406 c 5.223,-1.593 11.716,-0.822 16.155,1.92 a 1.13,1.13 0 0 1 0.37,1.55 z m 0.152,-4.099 C 18.297,10.095 10.649,9.84 6.224,11.19 A 1.344,1.344 0 0 1 4.546,10.29 1.354,1.354 0 0 1 5.443,8.603 c 5.08,-1.55 13.525,-1.25 18.862,1.933 0.64,0.382 0.85,1.212 0.47,1.853 a 1.34,1.34 0 0 1 -1.843,0.473 z m 16.24,0.53 c -2.484,-0.595 -2.926,-1.013 -2.926,-1.89 0,-0.83 0.777,-1.388 1.932,-1.388 1.12,0 2.23,0.424 3.394,1.296 a 0.16,0.16 0 0 0 0.122,0.03 0.16,0.16 0 0 0 0.108,-0.066 L 43.015,9.656 A 0.164,0.164 0 0 0 42.984,9.434 c -1.386,-1.118 -2.946,-1.661 -4.77,-1.661 -2.68,0 -4.554,1.617 -4.554,3.931 0,2.482 1.616,3.36 4.409,4.039 2.375,0.55 2.777,1.01 2.777,1.834 0,0.913 -0.811,1.481 -2.116,1.481 -1.45,0 -2.633,-0.492 -3.955,-1.641 a 0.16,0.16 0 0 0 -0.23,0.017 l -1.36,1.626 a 0.165,0.165 0 0 0 0.015,0.228 c 1.539,1.38 3.431,2.11 5.475,2.11 2.888,0 4.755,-1.587 4.755,-4.043 0.005,-2.073 -1.23,-3.221 -4.254,-3.96 l -0.005,-0.003 z m 10.794,-2.461 c -1.252,0 -2.279,0.496 -3.127,1.511 V 11.3 A 0.163,0.163 0 0 0 46.678,11.136 H 44.454 A 0.163,0.163 0 0 0 44.292,11.3 v 12.705 c 0,0.09 0.072,0.164 0.162,0.164 h 2.224 c 0.089,0 0.161,-0.074 0.161,-0.164 v -4.01 c 0.848,0.955 1.875,1.422 3.127,1.422 2.327,0 4.684,-1.8 4.684,-5.242 0.003,-3.442 -2.353,-5.243 -4.682,-5.243 h -0.002 z m 2.097,5.243 c 0,1.752 -1.073,2.976 -2.612,2.976 -1.52,0 -2.667,-1.28 -2.667,-2.976 0,-1.697 1.147,-2.976 2.667,-2.976 1.513,0 2.612,1.251 2.612,2.976 z m 8.623,-5.243 c -2.997,0 -5.344,2.32 -5.344,5.28 0,2.93 2.332,5.224 5.308,5.224 3.007,0 5.362,-2.311 5.362,-5.26 0,-2.94 -2.34,-5.244 -5.326,-5.244 z m 0,8.236 c -1.594,0 -2.796,-1.288 -2.796,-2.994 0,-1.714 1.161,-2.957 2.76,-2.957 1.604,0 2.813,1.287 2.813,2.995 0,1.713 -1.168,2.956 -2.777,2.956 z M 72.41,11.135 H 69.963 V 8.621 A 0.163,0.163 0 0 0 69.802,8.457 h -2.224 a 0.164,0.164 0 0 0 -0.163,0.164 v 2.514 h -1.069 a 0.163,0.163 0 0 0 -0.161,0.164 v 1.92 c 0,0.09 0.072,0.165 0.161,0.165 h 1.069 v 4.97 c 0,2.008 0.994,3.026 2.957,3.026 0.797,0 1.458,-0.166 2.081,-0.521 a 0.16,0.16 0 0 0 0.083,-0.142 v -1.83 a 0.163,0.163 0 0 0 -0.235,-0.145 2.795,2.795 0 0 1 -1.306,0.316 c -0.712,0 -1.032,-0.326 -1.032,-1.054 v -4.62 h 2.447 c 0.09,0 0.162,-0.073 0.162,-0.163 V 11.3 a 0.158,0.158 0 0 0 -0.16,-0.164 H 72.41 Z m 8.525,0.01 v -0.309 c 0,-0.908 0.347,-1.313 1.124,-1.313 0.463,0 0.836,0.092 1.253,0.232 A 0.163,0.163 0 0 0 83.525,9.599 V 7.716 A 0.162,0.162 0 0 0 83.41,7.559 6.063,6.063 0 0 0 81.562,7.292 c -2.052,0 -3.14,1.163 -3.14,3.36 v 0.473 h -1.067 a 0.164,0.164 0 0 0 -0.163,0.164 v 1.93 c 0,0.09 0.073,0.165 0.163,0.165 h 1.068 v 7.665 c 0,0.091 0.074,0.164 0.163,0.164 h 2.222 a 0.162,0.162 0 0 0 0.163,-0.164 v -7.665 h 2.077 l 3.18,7.665 c -0.36,0.804 -0.716,0.965 -1.2,0.965 -0.392,0 -0.806,-0.118 -1.226,-0.35 a 0.176,0.176 0 0 0 -0.13,-0.013 0.162,0.162 0 0 0 -0.095,0.088 l -0.754,1.662 a 0.164,0.164 0 0 0 0.07,0.213 c 0.787,0.428 1.496,0.61 2.374,0.61 1.641,0 2.55,-0.769 3.348,-2.837 l 3.858,-10.018 a 0.16,0.16 0 0 0 -0.018,-0.152 0.158,0.158 0 0 0 -0.132,-0.072 h -2.315 a 0.163,0.163 0 0 0 -0.154,0.11 l -2.372,6.807 -2.597,-6.811 a 0.162,0.162 0 0 0 -0.15,-0.106 z m -4.942,-0.01 h -2.224 a 0.164,0.164 0 0 0 -0.163,0.164 v 9.75 c 0,0.091 0.074,0.164 0.163,0.164 h 2.224 c 0.09,0 0.163,-0.073 0.163,-0.164 v -9.75 a 0.163,0.163 0 0 0 -0.163,-0.163 z m -1.1,-4.44 c -0.88,0 -1.595,0.717 -1.595,1.603 A 1.6,1.6 0 0 0 74.894,9.9 c 0.88,0 1.593,-0.717 1.593,-1.603 0,-0.886 -0.714,-1.602 -1.593,-1.602 z m 19.479,7.575 c -0.88,0 -1.565,-0.71 -1.565,-1.573 0,-0.862 0.694,-1.58 1.574,-1.58 0.879,0 1.564,0.71 1.564,1.571 0,0.863 -0.694,1.582 -1.573,1.582 z m 0.009,-2.997 c -0.802,0 -1.409,0.64 -1.409,1.424 0,0.784 0.603,1.416 1.4,1.416 0.802,0 1.408,-0.64 1.408,-1.425 0,-0.784 -0.603,-1.415 -1.4,-1.415 z m 0.346,1.577 0.444,0.623 h -0.375 l -0.398,-0.572 h -0.342 v 0.572 h -0.313 v -1.651 h 0.732 c 0.383,0 0.634,0.196 0.634,0.526 0.001,0.271 -0.155,0.437 -0.38,0.502 z m -0.264,-0.745 h -0.407 v 0.522 h 0.407 c 0.203,0 0.325,-0.1 0.325,-0.261 0,-0.17 -0.122,-0.26 -0.325,-0.26 z"
       fill="#1ed760"
       fill-rule="nonzero"
       id="path1067" />
  </g>
</svg>
